<svg width="50" height="50" viewBox="0 0 50 50" fill="none" xmlns="http://www.w3.org/2000/svg" data-config-id="auto-svg-2-2">
                  <path d="M8.33301 12.5C8.33301 10.1988 10.1985 8.33334 12.4997 8.33334H16.6663C18.9675 8.33334 20.833 10.1988 20.833 12.5V16.6667C20.833 18.9679 18.9675 20.8333 16.6663 20.8333H12.4997C10.1985 20.8333 8.33301 18.9679 8.33301 16.6667V12.5Z" stroke="#18181B" stroke-width="3" stroke-linecap="round" stroke-linejoin="round"></path>
                  <path d="M29.1663 12.5C29.1663 10.1988 31.0318 8.33334 33.333 8.33334H37.4997C39.8009 8.33334 41.6663 10.1988 41.6663 12.5V16.6667C41.6663 18.9679 39.8009 20.8333 37.4997 20.8333H33.333C31.0318 20.8333 29.1663 18.9679 29.1663 16.6667V12.5Z" stroke="#18181B" stroke-width="3" stroke-linecap="round" stroke-linejoin="round"></path>
                  <path d="M8.33301 33.3333C8.33301 31.0322 10.1985 29.1667 12.4997 29.1667H16.6663C18.9675 29.1667 20.833 31.0322 20.833 33.3333V37.5C20.833 39.8012 18.9675 41.6667 16.6663 41.6667H12.4997C10.1985 41.6667 8.33301 39.8012 8.33301 37.5V33.3333Z" stroke="#18181B" stroke-width="3" stroke-linecap="round" stroke-linejoin="round"></path>
                  <path d="M29.1663 33.3333C29.1663 31.0322 31.0318 29.1667 33.333 29.1667H37.4997C39.8009 29.1667 41.6663 31.0322 41.6663 33.3333V37.5C41.6663 39.8012 39.8009 41.6667 37.4997 41.6667H33.333C31.0318 41.6667 29.1663 39.8012 29.1663 37.5V33.3333Z" stroke="#18181B" stroke-width="3" stroke-linecap="round" stroke-linejoin="round"></path>
                </svg>