<svg class="mx-auto mb-8" width="50" height="50" viewBox="0 0 50 50" fill="none" xmlns="http://www.w3.org/2000/svg" data-config-id="auto-svg-3-2">
                  <path d="M8.33301 10.4167C8.33301 9.26608 9.26575 8.33334 10.4163 8.33334H39.583C40.7336 8.33334 41.6663 9.26608 41.6663 10.4167V14.5833C41.6663 15.7339 40.7336 16.6667 39.583 16.6667H10.4163C9.26575 16.6667 8.33301 15.7339 8.33301 14.5833V10.4167Z" stroke="#18181B" stroke-width="3" stroke-linecap="round" stroke-linejoin="round"></path>
                  <path d="M8.33301 27.0833C8.33301 25.9327 9.26575 25 10.4163 25H22.9163C24.0669 25 24.9997 25.9327 24.9997 27.0833V39.5833C24.9997 40.7339 24.0669 41.6667 22.9163 41.6667H10.4163C9.26575 41.6667 8.33301 40.7339 8.33301 39.5833V27.0833Z" stroke="#18181B" stroke-width="3" stroke-linecap="round" stroke-linejoin="round"></path>
                  <path d="M33.333 27.0833C33.333 25.9327 34.2657 25 35.4163 25H39.583C40.7336 25 41.6663 25.9327 41.6663 27.0833V39.5833C41.6663 40.7339 40.7336 41.6667 39.583 41.6667H35.4163C34.2657 41.6667 33.333 40.7339 33.333 39.5833V27.0833Z" stroke="#18181B" stroke-width="3" stroke-linecap="round" stroke-linejoin="round"></path>
                </svg>